<svg data-v-423bf9ae="" xmlns="http://www.w3.org/2000/svg" viewBox="0 0 190.102032445362 60" class="font"><!----><!----><!----><g data-v-423bf9ae="" id="dda44f98-5a53-4cad-8f57-13eed2115a2a" fill="red" transform="matrix(6.1224488604322,0,0,6.1224488604322,-2.571427144616095,-25.71428452288795)"><path d="M4.83 6.52C4.83 6.83 4.58 7.08 4.27 7.08C3.96 7.08 3.71 6.83 3.71 6.52C3.71 6.20 3.58 5.89 3.37 5.67C3.18 5.45 2.91 5.33 2.63 5.33C2.34 5.33 2.07 5.45 1.88 5.67C1.67 5.89 1.54 6.20 1.54 6.52L1.54 11.12C1.40 10.98 1.20 10.89 0.98 10.89C0.77 10.89 0.56 10.98 0.42 11.12L0.42 6.52C0.42 5.25 1.41 4.21 2.63 4.21C3.84 4.21 4.83 5.25 4.83 6.52ZM2.62 14C1.41 14 0.42 12.96 0.42 11.69C0.42 11.38 0.67 11.13 0.98 11.13C1.29 11.13 1.54 11.38 1.54 11.69C1.54 12.01 1.65 12.32 1.88 12.54C2.07 12.77 2.34 12.88 2.62 12.88C2.90 12.88 3.16 12.77 3.37 12.54C3.58 12.32 3.71 12.01 3.71 11.69C3.71 11.38 3.96 11.13 4.27 11.13C4.58 11.13 4.83 11.38 4.83 11.69C4.83 12.96 3.84 14 2.62 14ZM7.73 6.65C6.52 6.65 5.53 7.69 5.53 8.96L5.53 11.12C5.67 10.98 5.87 10.89 6.09 10.89C6.31 10.89 6.51 10.98 6.65 11.12L6.65 8.96C6.65 8.64 6.76 8.33 6.99 8.11C7.18 7.88 7.45 7.77 7.73 7.77C8.01 7.77 8.27 7.88 8.48 8.11C8.69 8.33 8.82 8.64 8.82 8.96L8.82 11.12C8.96 10.98 9.16 10.89 9.38 10.89C9.59 10.89 9.79 10.98 9.94 11.12L9.94 8.96C9.94 7.69 8.95 6.65 7.73 6.65ZM9.38 11.13C9.16 11.13 8.96 11.26 8.88 11.44C8.83 11.51 8.82 11.59 8.82 11.69C8.82 12.01 8.69 12.32 8.48 12.54C8.27 12.75 8.01 12.88 7.73 12.88C7.45 12.88 7.18 12.75 6.99 12.54C6.76 12.32 6.65 12.01 6.65 11.69C6.65 11.59 6.64 11.51 6.59 11.44C6.50 11.26 6.31 11.13 6.09 11.13C5.87 11.13 5.68 11.26 5.59 11.44C5.56 11.51 5.53 11.59 5.53 11.69C5.53 12.96 6.52 14 7.73 14L7.74 14C8.72 14 9.55 13.31 9.83 12.38C9.90 12.17 9.94 11.93 9.94 11.69C9.94 11.59 9.91 11.51 9.88 11.44C9.79 11.26 9.59 11.13 9.38 11.13ZM11.90 5.32C11.90 5.64 11.65 5.89 11.34 5.89C11.03 5.89 10.78 5.64 10.78 5.32C10.78 5.01 11.03 4.76 11.34 4.76C11.65 4.76 11.90 5.01 11.90 5.32ZM11.90 8.99C11.76 8.85 11.56 8.76 11.34 8.76C11.13 8.76 10.92 8.85 10.78 8.99L10.78 7.21C10.78 6.90 11.03 6.65 11.34 6.65C11.65 6.65 11.90 6.90 11.90 7.21ZM11.90 9.56L11.90 13.44C11.90 13.75 11.65 14 11.34 14C11.03 14 10.78 13.75 10.78 13.44L10.78 9.56L10.78 9.51C10.81 9.23 11.05 9.00 11.34 9.00C11.63 9.00 11.87 9.23 11.90 9.51ZM17.15 9.02C17.12 9.31 16.88 9.53 16.59 9.53C16.28 9.53 16.04 9.31 16.03 9.02L16.03 8.97C16.03 8.65 15.90 8.34 15.69 8.12C15.48 7.91 15.22 7.78 14.94 7.78C14.66 7.78 14.39 7.91 14.20 8.12C13.97 8.34 13.86 8.65 13.86 8.97C13.86 9.28 13.61 9.53 13.30 9.53C12.99 9.53 12.74 9.28 12.74 8.97C12.74 7.70 13.73 6.66 14.94 6.66C16.16 6.66 17.15 7.70 17.15 8.97ZM13.30 9.77C13.52 9.77 13.72 9.69 13.86 9.55L13.86 13.44C13.86 13.75 13.61 14 13.30 14C12.99 14 12.74 13.75 12.74 13.44L12.74 9.55C12.88 9.69 13.08 9.77 13.30 9.77ZM17.15 13.44C17.15 13.75 16.90 14 16.59 14C16.28 14 16.03 13.75 16.03 13.44L16.03 9.55C16.17 9.69 16.37 9.77 16.59 9.77C16.80 9.77 17.00 9.69 17.15 9.55ZM22.44 4.76C22.44 5.07 22.19 5.32 21.88 5.32L20.71 5.32L20.71 6.65C20.55 6.51 20.36 6.43 20.15 6.43C19.92 6.43 19.73 6.51 19.59 6.65L19.59 5.32L18.34 5.32C18.03 5.32 17.78 5.07 17.78 4.76C17.78 4.45 18.03 4.20 18.34 4.20L21.88 4.20C22.19 4.20 22.44 4.45 22.44 4.76ZM20.71 7.22L20.71 13.44C20.71 13.75 20.45 14 20.15 14C19.84 14 19.59 13.75 19.59 13.44L19.59 7.22L19.59 7.17C19.61 6.89 19.85 6.66 20.15 6.66C20.44 6.66 20.68 6.87 20.71 7.17ZM24.01 6.65C22.81 6.65 21.81 7.69 21.81 8.96L21.81 11.12C21.95 10.98 22.15 10.89 22.37 10.89C22.60 10.89 22.79 10.98 22.93 11.12L22.93 8.96C22.93 8.64 23.04 8.33 23.27 8.11C23.46 7.88 23.73 7.77 24.01 7.77C24.29 7.77 24.56 7.88 24.77 8.11C24.98 8.33 25.10 8.64 25.10 8.96L25.10 11.12C25.24 10.98 25.44 10.89 25.66 10.89C25.87 10.89 26.07 10.98 26.22 11.12L26.22 8.96C26.22 7.69 25.23 6.65 24.01 6.65ZM25.66 11.13C25.44 11.13 25.24 11.26 25.16 11.44C25.12 11.51 25.10 11.59 25.10 11.69C25.10 12.01 24.98 12.32 24.77 12.54C24.56 12.75 24.29 12.88 24.01 12.88C23.73 12.88 23.46 12.75 23.27 12.54C23.04 12.32 22.93 12.01 22.93 11.69C22.93 11.59 22.92 11.51 22.88 11.44C22.78 11.26 22.60 11.13 22.37 11.13C22.15 11.13 21.97 11.26 21.87 11.44C21.84 11.51 21.81 11.59 21.81 11.69C21.81 12.96 22.81 14 24.01 14L24.02 14C25.00 14 25.83 13.31 26.11 12.38C26.18 12.17 26.22 11.93 26.22 11.69C26.22 11.59 26.19 11.51 26.17 11.44C26.07 11.26 25.87 11.13 25.66 11.13ZM27.06 8.97C27.06 8.74 27.10 8.50 27.16 8.29C27.44 7.35 28.28 6.66 29.25 6.66L29.26 6.66C30.48 6.66 31.47 7.70 31.47 8.97C31.47 9.07 31.44 9.16 31.42 9.23C31.32 9.41 31.12 9.53 30.91 9.53C30.69 9.53 30.49 9.41 30.41 9.23C30.37 9.16 30.35 9.07 30.35 8.97C30.35 8.65 30.23 8.34 30.02 8.12C29.81 7.91 29.54 7.78 29.26 7.78C28.98 7.78 28.71 7.91 28.52 8.12C28.29 8.34 28.18 8.65 28.18 8.97C28.18 9.07 28.17 9.16 28.13 9.23C28.03 9.41 27.85 9.53 27.62 9.53C27.40 9.53 27.22 9.41 27.12 9.23C27.09 9.16 27.06 9.07 27.06 8.97ZM30.11 11.69C30.11 11.70 30.10 11.72 30.10 11.73L27.71 9.77C28.11 9.73 28.42 9.38 28.42 8.97L28.42 8.90L30.84 10.89C30.44 10.92 30.11 11.27 30.11 11.69ZM31.47 11.69C31.47 11.93 31.43 12.17 31.36 12.38C31.08 13.31 30.25 14 29.27 14L29.26 14C28.06 14 27.06 12.96 27.06 11.69C27.06 11.59 27.09 11.51 27.12 11.44C27.22 11.26 27.40 11.13 27.62 11.13C27.85 11.13 28.03 11.26 28.13 11.44C28.17 11.51 28.18 11.59 28.18 11.69C28.18 12.01 28.29 12.32 28.52 12.54C28.71 12.75 28.98 12.88 29.26 12.88C29.54 12.88 29.81 12.75 30.02 12.54C30.23 12.32 30.35 12.01 30.35 11.69C30.35 11.59 30.37 11.51 30.41 11.44C30.49 11.26 30.69 11.13 30.91 11.13C31.12 11.13 31.32 11.26 31.42 11.44C31.44 11.51 31.47 11.59 31.47 11.69Z"></path></g><!----><!----></svg>